<svg class="svg-icon" style="width: 1em; height: 1em;vertical-align: middle;overflow: hidden;" viewBox="0 0 1024 1024" version="1.1" xmlns="http://www.w3.org/2000/svg"><path fill="#fff" d="M402.285714 786.285714V384q0-8-5.142857-13.142857t-13.142857-5.142857h-36.571429q-8 0-13.142857 5.142857t-5.142857 13.142857v402.285714q0 8 5.142857 13.142857t13.142857 5.142858h36.571429q8 0 13.142857-5.142858t5.142857-13.142857z m146.285715 0V384q0-8-5.142858-13.142857t-13.142857-5.142857h-36.571428q-8 0-13.142857 5.142857t-5.142858 13.142857v402.285714q0 8 5.142858 13.142857t13.142857 5.142858h36.571428q8 0 13.142857-5.142858t5.142858-13.142857z m146.285714 0V384q0-8-5.142857-13.142857t-13.142857-5.142857h-36.571429q-8 0-13.142857 5.142857t-5.142857 13.142857v402.285714q0 8 5.142857 13.142857t13.142857 5.142858h36.571429q8 0 13.142857-5.142858t5.142857-13.142857zM384 219.428571h256l-27.428571-66.857142q-4-5.142857-9.714286-6.285715H421.714286q-5.714286 1.142857-9.714286 6.285715z m530.285714 18.285715v36.571428q0 8-5.142857 13.142857t-13.142857 5.142858h-54.857143v541.714285q0 47.428571-26.857143 82t-64.571428 34.571429H274.285714q-37.714286 0-64.571428-33.428572T182.857143 836.571429V292.571429h-54.857143q-8 0-13.142857-5.142858t-5.142857-13.142857v-36.571428q0-8 5.142857-13.142857t13.142857-5.142858h176.571429l40-95.428571q8.571429-21.142857 30.857142-36t45.142858-14.857143h182.857142q22.857143 0 45.142858 14.857143t30.857142 36l40 95.428571h176.571429q8 0 13.142857 5.142858t5.142857 13.142857z"  /></svg>